<svg width="100" height="100" viewBox="0 0 100 100" fill="none" xmlns="http://www.w3.org/2000/svg">
<path d="M31.25 17.5417L50 28.375L68.75 17.5417M31.25 82.4583V60.8333L12.5 50M87.5 50L68.75 60.8333V82.4583M13.625 29L50 50.0417L86.375 29M50 92V50M87.5 66.6667V33.3333C87.4985 31.872 87.1127 30.4367 86.3814 29.1715C85.6501 27.9063 84.5989 26.8557 83.3333 26.125L54.1667 9.45834C52.8998 8.72693 51.4628 8.34188 50 8.34188C48.5372 8.34188 47.1002 8.72693 45.8333 9.45834L16.6667 26.125C15.4011 26.8557 14.3499 27.9063 13.6186 29.1715C12.8873 30.4367 12.5015 31.872 12.5 33.3333V66.6667C12.5015 68.128 12.8873 69.5633 13.6186 70.8285C14.3499 72.0937 15.4011 73.1443 16.6667 73.875L45.8333 90.5417C47.1002 91.2731 48.5372 91.6581 50 91.6581C51.4628 91.6581 52.8998 91.2731 54.1667 90.5417L83.3333 73.875C84.5989 73.1443 85.6501 72.0937 86.3814 70.8285C87.1127 69.5633 87.4985 68.128 87.5 66.6667Z" stroke="#1E1E1E" stroke-width="4" stroke-linecap="round" stroke-linejoin="round"/>
</svg>
