<svg width="40" height="40" viewBox="0 0 40 40" fill="none" xmlns="http://www.w3.org/2000/svg">
<path d="M28.3334 21.6666L21.6667 36.6666C20.3406 36.6666 19.0689 36.1399 18.1312 35.2022C17.1935 34.2645 16.6667 32.9927 16.6667 31.6666V25H7.23338C6.7502 25.0054 6.27161 24.9058 5.83076 24.7079C5.38992 24.5101 4.99736 24.2187 4.68029 23.8541C4.36321 23.4895 4.12921 23.0603 3.99448 22.5962C3.85976 22.1322 3.82754 21.6444 3.90005 21.1666L6.20005 6.16664C6.32059 5.37179 6.72433 4.64729 7.33687 4.12663C7.94942 3.60596 8.7295 3.32422 9.53338 3.33331H28.3334M28.3334 21.6666V3.33331M28.3334 21.6666H32.7834C33.7267 21.6833 34.6432 21.3531 35.3591 20.7386C36.0749 20.1241 36.5403 19.2682 36.6667 18.3333V6.66664C36.5403 5.73174 36.0749 4.87581 35.3591 4.26134C34.6432 3.64686 33.7267 3.31662 32.7834 3.33331H28.3334" stroke="#1E1E1E" stroke-width="3.5" stroke-linecap="round" stroke-linejoin="round"/>
</svg>
