<svg width="37" height="38" viewBox="0 0 37 38" fill="none" xmlns="http://www.w3.org/2000/svg">
<path d="M10.6666 17.3334L17.3333 2.33336C18.6594 2.33336 19.9311 2.86015 20.8688 3.79783C21.8065 4.73551 22.3333 6.00728 22.3333 7.33336L22.3333 14H31.7666C32.2498 13.9946 32.7284 14.0942 33.1692 14.2921C33.6101 14.4899 34.0026 14.7813 34.3197 15.1459C34.6368 15.5105 34.8708 15.9397 35.0055 16.4038C35.1402 16.8678 35.1725 17.3556 35.0999 17.8334L32.7999 32.8334C32.6794 33.6282 32.2757 34.3527 31.6631 34.8734C31.0506 35.394 30.2705 35.6758 29.4666 35.6667H10.6666M10.6666 17.3334L10.6666 35.6667M10.6666 17.3334H6.21662C5.27335 17.3167 4.35679 17.6469 3.64093 18.2614C2.92507 18.8759 2.45974 19.7318 2.33328 20.6667V32.3334C2.45974 33.2683 2.92507 34.1242 3.64093 34.7387C4.35679 35.3531 5.27335 35.6834 6.21662 35.6667H10.6666" stroke="#1E1E1E" stroke-width="3.5" stroke-linecap="round" stroke-linejoin="round"/>
</svg>
